<?xml version="1.0" encoding="iso-8859-1"?>
<!-- Generator: Adobe Illustrator 21.0.0, SVG Export Plug-In . SVG Version: 6.00 Build 0)  -->
<svg xmlns="http://www.w3.org/2000/svg" xmlns:xlink="http://www.w3.org/1999/xlink" version="1.1" id="Capa_1" x="0px" y="0px" viewBox="0 0 512.001 512.001" style="enable-background:new 0 0 512.001 512.001;" xml:space="preserve" width="512" height="512">
<g>
	<path style="fill:#A2DB18;" d="M271.536,191.91c-35.5-40.81-96.095-52.935-145.292-26.024   C70.09,196.604,48.709,266.791,78.555,323.705c0.045,0.086,0.091,0.172,0.136,0.259c3.298,6.251,12.736,3.738,12.651-3.329   c-0.516-42.84,22.466-84.423,63.009-105.685c28.57-14.982,60.48-17.048,89.066-8.293L271.536,191.91z"/>
	<path style="fill:#6ABA0F;" d="M250.454,167.417c-41.222-3.799-81.154,21.543-94.135,62.45   c-14.816,46.692,10.479,96.826,57.091,112.523c0.071,0.024,0.141,0.048,0.212,0.071c5.131,1.714,9.022-4.668,5.237-8.533   c-22.944-23.425-32.224-58.583-21.043-91.788c7.879-23.398,24.439-41.419,44.882-51.695L250.454,167.417z"/>
	<path style="fill:#A2DB18;" d="M252.433,198.758c-33.82-42.213-34.938-103.999,0.321-147.604   C292.999,1.383,365.875-7.131,416.549,32.393c0.077,0.06,0.154,0.12,0.23,0.18c5.563,4.36,1.405,13.199-5.534,11.854   c-42.06-8.153-87.077,7.041-115.232,43.139c-19.84,25.437-27.567,56.467-24.054,86.157L252.433,198.758z"/>
	<path style="fill:#A2DB18;" d="M228.806,102.705c3.52-18.347,11.448-36.092,23.948-51.551   C292.999,1.383,365.875-7.131,416.549,32.393c0.077,0.06,0.154,0.12,0.23,0.18c5.563,4.36,1.405,13.199-5.534,11.854   c-42.06-8.153-87.077,7.041-115.232,43.139c-11.048,14.164-18.339,30.063-22.026,46.498"/>
	<path style="fill:#A2DB18;" d="M205.746,153.834c-26.229-5.26-54.354-1.703-79.501,12.052   C70.09,196.604,48.709,266.791,78.555,323.705c0.045,0.086,0.091,0.172,0.136,0.259c3.298,6.251,12.736,3.738,12.651-3.329   c-0.516-42.84,22.466-84.423,63.009-105.685c3.012-1.58,6.062-3.016,9.14-4.311"/>
	<path style="fill:#6ABA0F;" d="M260.779,161.327c-11.271-52.903-58.395-92.878-114.471-93.185   c-64.005-0.35-116.727,50.679-118.206,114.927c-0.002,0.097-0.004,0.195-0.006,0.292c-0.145,7.066,9.328,9.443,12.679,3.219   c20.313-37.721,60.57-62.954,106.338-61.901c32.251,0.743,61.165,14.402,81.924,35.916L260.779,161.327z"/>
	<path style="fill:#A2DB18;" d="M252.343,200.377c-1.513-54.069,34.866-104.023,89.29-117.534   c62.121-15.422,125.382,21.746,141.958,83.837c0.025,0.094,0.05,0.188,0.075,0.282c1.806,6.833-6.841,11.375-11.564,6.117   c-28.629-31.873-73.699-46.909-117.93-35.1c-31.168,8.321-56.048,28.41-71.154,54.209L252.343,200.377z"/>
	<path style="fill:#A2DB18;" d="M265.58,142.99c15.072-29.023,42.038-51.703,76.053-60.148   c62.121-15.422,125.382,21.746,141.958,83.837c0.025,0.094,0.05,0.188,0.075,0.282c1.806,6.833-6.841,11.375-11.564,6.117   c-28.629-31.873-73.699-46.909-117.93-35.1c-17.633,4.708-33.253,13.181-46.229,24.324"/>
	<path style="fill:#6ABA0F;" d="M304.581,158.364c20.38,0.33,40.748,7.5,57.287,21.762c37.098,31.991,41.845,87.944,10.384,125.75   c-0.048,0.057-0.095,0.115-0.143,0.172c-3.47,4.149-10.13,0.755-8.933-4.52c7.255-31.976-3.277-66.78-30.208-89.192   c-10.084-8.392-21.459-14.206-33.326-17.516"/>
	<path style="fill:#D47A3D;" d="M282.971,200.377c10.587,34.535,24.224,92.79,21.176,156.78   c-4.858,102.008-28.681,147.345-28.681,147.345h-84.661c0,0,70.035-33.494,70.035-154.932c0-40.434-2.738-72.097-6.391-96.347   c-1.577-10.469-3.324-19.556-5.095-27.371"/>
	<path style="fill:#B7692E;" d="M282.971,200.376l-18.819,9.436c9.692,35.168,20.671,91.155,17.995,147.344   c-4.857,102.008-28.681,147.345-28.681,147.345h22c0,0,23.823-45.337,28.681-147.345   C307.195,293.167,293.559,234.911,282.971,200.376z"/>
	<circle style="fill:#D6895E;" cx="237.97" cy="200.377" r="27.824"/>
	<path style="fill:#D6895E;" d="M265.794,200.377c0,15.367-12.457,27.824-27.824,27.824s-27.824-12.457-27.824-27.824   c0-9.995,5.27-18.759,13.183-23.665"/>
	<circle style="fill:#B1624E;" cx="280.121" cy="172.553" r="27.824"/>
	<path style="fill:#B1624E;" d="M265.481,148.888c4.253-2.637,9.269-4.159,14.641-4.159c15.367,0,27.824,12.457,27.824,27.824   s-12.457,27.824-27.824,27.824c-15.367,0-27.824-12.457-27.824-27.824"/>
	<circle style="fill:#D47A3D;" cx="233.121" cy="148.892" r="27.824"/>
	<circle style="fill:#D47A3D;" cx="233.121" cy="148.892" r="27.824"/>
	<path d="M490.909,165.01l-0.071-0.266c-8.521-31.917-28.884-58.734-57.337-75.511c-28.418-16.757-61.684-21.612-93.674-13.669   c-13.52,3.356-26.234,8.939-37.709,16.379c25.633-32.683,66.873-48.067,107.7-40.153c6.625,1.286,12.938-1.973,15.734-8.1   c2.769-6.065,1.103-12.905-4.13-17.006l-0.261-0.205c-26.048-20.316-58.458-29.422-91.28-25.642   c-32.773,3.777-62.236,19.972-82.959,45.601c-10.12,12.515-17.726,26.965-22.379,42.333c-5.212-4.246-10.759-8.087-16.597-11.455   c-18.701-10.79-40.001-16.556-61.597-16.674c-7.148-0.026-14.302,0.53-21.295,1.693c-4.086,0.679-6.848,4.542-6.169,8.628   c0.679,4.086,4.542,6.849,8.628,6.169c6.156-1.023,12.48-1.518,18.754-1.49c29.205,0.159,56.436,11.692,76.673,31.728   c0.361,0.454,0.774,0.867,1.234,1.229c1.648,1.684,3.248,3.424,4.796,5.222c-11.362,1.337-21.085,8.083-26.524,17.59   c-16.964-8.886-35.86-13.785-55.16-14.229c-46.258-1.049-88.709,23.021-111.577,63.07c1.802-36.132,21.065-68.898,51.958-88.094   c3.519-2.186,4.599-6.811,2.413-10.329s-6.81-4.598-10.329-2.413c-36.061,22.406-58.172,61.089-59.147,103.464l-0.007,0.326   c-0.137,6.667,4.103,12.287,10.55,13.983c1.267,0.333,2.533,0.495,3.775,0.495c5.148,0,9.882-2.769,12.456-7.548   c19.767-36.709,57.906-58.926,99.562-57.958c17.001,0.392,33.641,4.706,48.572,12.532c-25.15-2.608-50.633,2.434-72.867,14.596   c-28.917,15.818-50.109,41.917-59.673,73.491c-9.577,31.612-6.401,65.134,8.952,94.411l0.134,0.254   c2.526,4.789,7.242,7.575,12.385,7.575c1.191,0,2.405-0.15,3.621-0.458c6.527-1.658,10.859-7.298,10.778-14.036   c-0.464-38.475,18.765-73.724,50.729-94.14c-0.132,0.399-0.273,0.794-0.4,1.196c-7.77,24.486-5.65,50.604,5.968,73.542   c11.632,22.966,31.477,40.14,55.856,48.35l0.251,0.084c1.369,0.457,2.753,0.678,4.111,0.678c4.221,0,8.176-2.137,10.557-5.942   c3.124-4.993,2.426-11.42-1.697-15.63c-21.862-22.32-29.254-54.563-19.292-84.146c2.205-6.548,5.191-12.709,8.88-18.429   c6.323,5.943,14.823,9.594,24.165,9.594c1.947,0,3.854-0.165,5.716-0.469c1.227,6.091,2.349,12.484,3.347,19.108   c4.186,27.786,6.308,59.826,6.308,95.23c0,60.119-17.923,97.214-32.958,117.747c-16.22,22.15-32.676,30.353-32.813,30.419   c-3.16,1.511-4.853,5.009-4.079,8.425c0.775,3.416,3.812,5.841,7.314,5.841h84.662c2.786,0,5.343-1.545,6.64-4.011   c0.259-0.493,6.414-12.343,13.115-36.936c0.612-2.247,1.242-4.658,1.882-7.219c0.002-0.009,0.005-0.017,0.007-0.026   c5.348-21.415,11.401-53.788,14.032-97.155c0.003-0.036,0.004-0.072,0.006-0.108c0.179-2.961,0.344-5.968,0.49-9.032   c2.843-59.71-8.396-114.363-19.261-151.833c2.302-0.855,4.489-1.948,6.537-3.241c10.724,3.181,20.566,8.43,29.254,15.661   c23.995,19.967,34.605,51.298,27.691,81.768c-1.303,5.747,1.474,11.585,6.753,14.199c1.837,0.91,3.771,1.351,5.674,1.351   c3.6,0,7.084-1.581,9.571-4.555l0.158-0.19c16.114-19.364,24.048-43.865,22.339-68.988c-0.281-4.133-3.859-7.246-7.991-6.974   c-4.133,0.281-7.255,3.859-6.974,7.992c1.227,18.041-3.422,35.701-13.182,50.638c4.033-32.782-8.673-65.323-34.444-86.77   c-8.256-6.871-17.396-12.24-27.256-16.037c3.131-5.271,4.936-11.418,4.936-17.981c0-1.992-0.174-3.943-0.493-5.846   c15.591,2.222,30.022,8.755,42.018,19.099c5.798,5,10.854,10.745,15.027,17.078c1.441,2.187,3.831,3.374,6.269,3.374   c1.417,0,2.85-0.401,4.12-1.239c3.459-2.279,4.415-6.931,2.135-10.39c-4.935-7.488-10.908-14.278-17.755-20.183   c-10.399-8.967-22.348-15.502-35.242-19.397c7.698-4.218,15.91-7.51,24.584-9.825c40.247-10.744,82.555,1.85,110.415,32.866   c2.828,3.148,6.644,4.8,10.56,4.8c2.318,0,4.673-0.579,6.876-1.769C489.826,177.952,492.622,171.492,490.909,165.01z    M280.121,192.877c-11.206,0-20.323-9.117-20.323-20.324c0-0.174-0.014-0.344-0.026-0.515c3.903-4.488,6.701-9.961,7.946-15.998   c0.589-0.185,1.166-0.436,1.715-0.776c3.201-1.985,6.897-3.034,10.688-3.034c11.207,0,20.324,9.117,20.324,20.324   S291.328,192.877,280.121,192.877z M258.586,55.87c18.238-22.555,44.167-36.807,73.013-40.131   c27.897-3.214,55.476,4.157,77.958,20.761c-45.471-7.653-91.001,9.969-119.458,46.453c-9.482,12.157-16.501,25.622-20.948,40.127   c-1.924,2.625-3.753,5.33-5.479,8.114c-3.039-5.225-7.374-9.604-12.569-12.689c-4.153-6.469-8.892-12.539-14.137-18.134   C240.678,84.149,248.105,68.832,258.586,55.87z M233.121,128.569c2.912,0,5.677,0.627,8.183,1.735   c0.754,0.612,1.608,1.064,2.518,1.343c5.765,3.591,9.623,9.968,9.623,17.246c0,11.207-9.117,20.324-20.324,20.324   s-20.324-9.117-20.324-20.324S221.915,128.569,233.121,128.569z M150.868,208.307c-40.972,21.487-66.434,63.135-67.024,109.249   c-12.328-25.107-14.655-53.542-6.517-80.409c8.418-27.789,27.069-50.76,52.516-64.68c21.26-11.629,45.904-15.859,69.882-12.087   c0.897,2.599,2.087,5.061,3.535,7.348c-17.576,7.665-32.401,20.237-42.753,36.031C157.253,205.13,154.011,206.659,150.868,208.307z    M206.875,331.695c-16.55-7.787-29.972-20.782-38.354-37.331c-9.832-19.411-11.626-41.51-5.052-62.227   c7.053-22.229,23.203-40.262,44.206-49.947c-3.239,5.391-5.028,11.631-5.028,18.187c0,4.322,0.784,8.464,2.211,12.295   c-6.097,8.197-10.851,17.282-14.149,27.076C180.008,271.525,186.249,305.895,206.875,331.695z M217.647,200.377   c0-6.782,3.306-12.987,8.878-16.788c2.138,0.406,4.341,0.627,6.596,0.627c4.553,0,8.903-0.875,12.903-2.451   c2.01,7.431,6.389,13.894,12.274,18.533c0,0.026-0.004,0.052-0.004,0.078c0,11.207-9.117,20.324-20.324,20.324   C226.764,220.7,217.647,211.583,217.647,200.377z M272.649,207.074c1.534,0.332,3.106,0.559,4.707,0.684   c4.133,14.021,8.36,30.637,11.839,49.142l-25.987,4.818c-0.423-3.253-0.867-6.464-1.341-9.614   c-1.182-7.849-2.536-15.401-4.031-22.538C265.397,224.405,270.854,216.384,272.649,207.074z M283.832,454.699l-38.019-0.316   c4.44-8.719,8.653-18.842,12.212-30.482l31.987-0.804C288.101,435.065,285.976,445.569,283.832,454.699z M267.303,374.456   l28.33-0.712c-0.899,12.378-2.081,23.799-3.449,34.293l-30.138,0.758C264.419,398.394,266.243,386.966,267.303,374.456z    M296.657,356.8c-0.031,0.648-0.069,1.273-0.102,1.917l-28.383,0.713c0.103-3.227,0.169-6.503,0.169-9.861   c0-7.115-0.088-14.095-0.256-20.943l28.794-2.681C297.195,336.028,297.155,346.333,296.657,356.8z M296.142,310.948l-28.573,2.661   c-0.567-12.869-1.448-25.203-2.64-36.953l26.807-4.971C293.679,284.141,295.223,297.289,296.142,310.948z M270.655,497.001H213.86   c5.558-5.05,11.781-11.611,17.982-19.953c1.763-2.371,3.562-4.957,5.369-7.737l42.774,0.355   C276.177,483.207,272.683,492.249,270.655,497.001z M352.239,130.732c-15.461,4.128-29.644,10.976-42.285,20.38   c-0.569-0.008-1.126,0.044-1.662,0.159c-6.335-8.365-16.303-13.825-27.534-14.025c0.229-0.487,0.425-0.994,0.548-1.541   c0.436-1.945,0.924-3.87,1.461-5.777c15.097-19.64,36.421-33.786,60.675-39.807c28.15-6.989,57.428-2.716,82.44,12.033   c24.177,14.255,41.717,36.748,49.653,63.58C443.883,132.202,396.944,118.795,352.239,130.732z"/>
</g>















</svg>
